<svg width="823" height="528" viewBox="0 0 823 528" fill="none" xmlns="http://www.w3.org/2000/svg">
<g clip-path="url(#clip0_19_1505)">
<path d="M812.828 222.194C793.708 135.381 727.161 66.8651 636.539 43.9208C612.712 37.8823 587.37 34.8404 562.163 37.43C459.107 48.037 336.173 117.345 272.387 131.876C208.6 146.407 133.806 88.2827 48.9873 177.549C-35.8537 266.804 -16.2585 473.359 153.356 513.831C322.97 554.314 417.371 454.667 492.709 476.469C568.046 498.271 702.927 488.919 782.576 424.576C829.799 386.422 829.425 297.529 812.828 222.194Z" fill="#00E5FF"/>
<path opacity="0.8" d="M812.828 222.194C793.708 135.381 727.161 66.8651 636.539 43.9208C612.712 37.8823 587.37 34.8404 562.163 37.43C459.107 48.037 336.173 117.345 272.387 131.876C208.6 146.407 133.806 88.2827 48.9873 177.549C-35.8537 266.804 -16.2585 473.359 153.356 513.831C322.97 554.314 417.371 454.667 492.709 476.469C568.046 498.271 702.927 488.919 782.576 424.576C829.799 386.422 829.425 297.529 812.828 222.194Z" fill="white"/>
<path opacity="0.2" d="M449.978 242.311H415.041V256.446H449.978V242.311Z" fill="black"/>
<path opacity="0.2" d="M436.673 192.012H401.736V206.147H436.673V192.012Z" fill="black"/>
<path opacity="0.2" d="M310.255 241.893H275.318V256.028H310.255V241.893Z" fill="black"/>
<path opacity="0.2" d="M360.997 143.557H326.061V157.692H360.997V143.557Z" fill="black"/>
<path opacity="0.2" d="M399.247 143.557H364.311V157.692H399.247V143.557Z" fill="black"/>
<path opacity="0.2" d="M250.372 346.391H215.436V360.526H250.372V346.391Z" fill="black"/>
<path opacity="0.2" d="M232.077 363.851H197.141V377.986H232.077V363.851Z" fill="black"/>
<path opacity="0.1" d="M417.542 211.553H382.605V225.688H417.542V211.553Z" fill="black"/>
<path opacity="0.1" d="M469.946 290.936H435.01V305.071H469.946V290.936Z" fill="black"/>
<path opacity="0.1" d="M265.351 312.557H230.414V326.692H265.351V312.557Z" fill="black"/>
<path opacity="0.1" d="M305.265 312.557H270.328V326.692H305.265V312.557Z" fill="black"/>
<path opacity="0.1" d="M308.591 292.598H273.654V306.733H308.591V292.598Z" fill="black"/>
<path opacity="0.1" d="M457.468 211.553H422.531V225.688H457.468V211.553Z" fill="black"/>
<path opacity="0.2" d="M439.909 99.0142H404.973V113.149H439.909V99.0142Z" fill="black"/>
<path opacity="0.2" d="M426.605 48.7156H391.668V62.8508H426.605V48.7156Z" fill="black"/>
<path opacity="0.1" d="M407.474 68.2559H372.537V82.391H407.474V68.2559Z" fill="black"/>
<path opacity="0.1" d="M447.388 68.2559H412.451V82.391H447.388V68.2559Z" fill="black"/>
<path opacity="0.2" d="M353.507 362.426H318.57V376.561H353.507V362.426Z" fill="black"/>
<path opacity="0.1" d="M334.376 381.967H299.439V396.102H334.376V381.967Z" fill="black"/>
<path opacity="0.1" d="M374.302 381.967H339.365V396.102H374.302V381.967Z" fill="black"/>
<path opacity="0.2" d="M184.165 186.539H149.229V200.674H184.165V186.539Z" fill="black"/>
<path opacity="0.1" d="M165.044 206.068H130.107V220.204H165.044V206.068Z" fill="black"/>
<path opacity="0.1" d="M204.958 206.068H170.021V220.204H204.958V206.068Z" fill="black"/>
<path opacity="0.2" d="M170.53 291.773H135.594V305.908H170.53V291.773Z" fill="black"/>
<path opacity="0.1" d="M325.233 224.195H290.297V238.33H325.233V224.195Z" fill="black"/>
<path opacity="0.1" d="M272.829 363.025H237.893V377.161H272.829V363.025Z" fill="black"/>
<path opacity="0.1" d="M380.954 126.097H346.018V140.232H380.954V126.097Z" fill="black"/>
<path opacity="0.2" d="M150.573 244.98H115.637V259.115H150.573V244.98Z" fill="black"/>
<path opacity="0.1" d="M170.53 227.52H135.594V241.655H170.53V227.52Z" fill="black"/>
<path opacity="0.1" d="M259.524 142.551H224.588V156.686H259.524V142.551Z" fill="black"/>
<path opacity="0.2" d="M380.954 242.311H346.018V256.446H380.954V242.311Z" fill="black"/>
<path opacity="0.2" d="M534.276 256.435H569.213V242.3H534.276V256.435Z" fill="black"/>
<path opacity="0.2" d="M547.581 206.147H582.518V192.012H547.581V206.147Z" fill="black"/>
<path opacity="0.2" d="M673.999 256.028H708.936V241.893H673.999V256.028Z" fill="black"/>
<path opacity="0.2" d="M623.269 157.692H658.205V143.557H623.269V157.692Z" fill="black"/>
<path opacity="0.2" d="M585.007 157.692H619.943V143.557H585.007V157.692Z" fill="black"/>
<path opacity="0.1" d="M566.712 225.677H601.648V211.541H566.712V225.677Z" fill="black"/>
<path opacity="0.1" d="M514.319 305.071H549.256V290.936H514.319V305.071Z" fill="black"/>
<path opacity="0.1" d="M718.915 326.681H753.852V312.546H718.915V326.681Z" fill="black"/>
<path opacity="0.1" d="M678.989 326.681H713.926V312.546H678.989V326.681Z" fill="black"/>
<path opacity="0.1" d="M675.663 306.733H710.6V292.598H675.663V306.733Z" fill="black"/>
<path opacity="0.1" d="M526.786 225.677H561.723V211.541H526.786V225.677Z" fill="black"/>
<path opacity="0.2" d="M254.366 432.785H289.303V418.65H254.366V432.785Z" fill="black"/>
<path opacity="0.1" d="M273.497 452.326H308.434V438.191H273.497V452.326Z" fill="black"/>
<path opacity="0.1" d="M233.583 452.326H268.52V438.191H233.583V452.326Z" fill="black"/>
<path opacity="0.2" d="M85.2822 432.785H120.219V418.65H85.2822V432.785Z" fill="black"/>
<path opacity="0.1" d="M104.415 452.326H139.352V438.191H104.415V452.326Z" fill="black"/>
<path opacity="0.1" d="M64.4892 452.326H99.4258V438.191H64.4892V452.326Z" fill="black"/>
<path opacity="0.2" d="M630.747 376.561H665.684V362.426H630.747V376.561Z" fill="black"/>
<path opacity="0.1" d="M649.88 396.09H684.816V381.955H649.88V396.09Z" fill="black"/>
<path opacity="0.1" d="M609.964 396.09H644.9V381.955H609.964V396.09Z" fill="black"/>
<path opacity="0.1" d="M659.032 238.331H693.969V224.195H659.032V238.331Z" fill="black"/>
<path opacity="0.1" d="M711.425 377.149H746.361V363.014H711.425V377.149Z" fill="black"/>
<path opacity="0.1" d="M541.03 397.018H575.967V382.882H541.03V397.018Z" fill="black"/>
<path opacity="0.1" d="M501.104 397.018H536.041V382.882H501.104V397.018Z" fill="black"/>
<path opacity="0.2" d="M452.874 446.898H487.811V432.763H452.874V446.898Z" fill="black"/>
<path opacity="0.1" d="M751.294 466.427H786.23V452.292H751.294V466.427Z" fill="black"/>
<path opacity="0.1" d="M751.294 430.298H786.23V416.162H751.294V430.298Z" fill="black"/>
<path opacity="0.1" d="M769.192 447.882H804.129V433.747H769.192V447.882Z" fill="black"/>
<path opacity="0.1" d="M729.12 447.882H764.057V433.747H729.12V447.882Z" fill="black"/>
<path opacity="0.1" d="M533.54 447.486H568.477V433.351H533.54V447.486Z" fill="black"/>
<path opacity="0.2" d="M614.253 480.223H579.316V494.358H614.253V480.223Z" fill="black"/>
<path opacity="0.1" d="M595.132 499.764H560.195V513.899H595.132V499.764Z" fill="black"/>
<path opacity="0.1" d="M635.048 499.764H600.111V513.899H635.048V499.764Z" fill="black"/>
<path opacity="0.2" d="M730.567 467.761H695.631V481.897H730.567V467.761Z" fill="black"/>
<path opacity="0.1" d="M711.437 499.764H676.5V513.899H711.437V499.764Z" fill="black"/>
<path opacity="0.1" d="M751.351 499.764H716.414V513.899H751.351V499.764Z" fill="black"/>
<path opacity="0.1" d="M104.392 513.876H69.4551V528.011H104.392V513.876Z" fill="black"/>
<path opacity="0.1" d="M218.976 495.308H184.039V509.443H218.976V495.308Z" fill="black"/>
<path opacity="0.1" d="M154.478 477.724H119.541V491.859H154.478V477.724Z" fill="black"/>
<path opacity="0.1" d="M136.579 495.308H101.643V509.443H136.579V495.308Z" fill="black"/>
<path opacity="0.1" d="M176.64 495.308H141.703V509.443H176.64V495.308Z" fill="black"/>
<path opacity="0.1" d="M603.302 140.244H638.238V126.108H603.302V140.244Z" fill="black"/>
<path opacity="0.1" d="M584.735 80.6384H619.672V66.5032H584.735V80.6384Z" fill="black"/>
<path opacity="0.1" d="M724.73 156.686H759.666V142.55H724.73V156.686Z" fill="black"/>
<path opacity="0.2" d="M603.302 256.435H638.238V242.3H603.302V256.435Z" fill="black"/>
<path opacity="0.2" d="M247.962 46.6008H213.025V60.736H247.962V46.6008Z" fill="black"/>
<path opacity="0.1" d="M106.823 146.734H71.8867V160.87H106.823V146.734Z" fill="black"/>
<path opacity="0.1" d="M150.394 158.925H115.457V173.06H150.394V158.925Z" fill="black"/>
<path opacity="0.1" d="M65.0088 172.856H30.0723V186.991H65.0088V172.856Z" fill="black"/>
<path opacity="0.1" d="M128.116 173.49H93.1797V187.625H128.116V173.49Z" fill="black"/>
<path opacity="0.2" d="M226.579 66.4126H191.643V80.5478H226.579V66.4126Z" fill="black"/>
<path opacity="0.2" d="M600.79 46.6008H565.854V60.736H600.79V46.6008Z" fill="black"/>
<path opacity="0.2" d="M579.417 66.4126H544.48V80.5478H579.417V66.4126Z" fill="black"/>
<path d="M94.2425 233.106H4.14062V218.406H86.8886V5.60889H101.596V225.756C101.596 229.816 98.3041 233.106 94.2425 233.106Z" fill="white" stroke="#27007F" stroke-linecap="round" stroke-linejoin="round"/>
<path d="M776.512 0.56543V84.732H101.291V99.4326H752.878V454.735H579.078C575.016 454.735 571.724 458.025 571.724 462.085V516.206H586.432V469.435H752.878V519.157H767.586V99.4326H783.866C787.928 99.4326 791.22 96.1419 791.22 92.0823V0.56543H776.512Z" fill="white" stroke="#27007F" stroke-linecap="round" stroke-linejoin="round"/>
<path d="M791.095 45.866H776.727V52.5378H791.095V45.866Z" fill="white" stroke="#27007F" stroke-linecap="round" stroke-linejoin="round"/>
<path d="M638.305 469.333V454.972H631.63V469.333H638.305Z" fill="white" stroke="#27007F" stroke-linecap="round" stroke-linejoin="round"/>
<path d="M652.842 469.333V454.972H646.167V469.333H652.842Z" fill="white" stroke="#27007F" stroke-linecap="round" stroke-linejoin="round"/>
<path d="M262.115 481.535H24.9355V496.235H262.115V481.535Z" fill="white" stroke="#27007F" stroke-linecap="round" stroke-linejoin="round"/>
<path d="M262.115 461.271H24.9355V475.971H262.115V461.271Z" fill="white" stroke="#27007F" stroke-linecap="round" stroke-linejoin="round"/>
<path d="M136.262 461.553H126.113V475.836H136.262V461.553Z" fill="white" stroke="#27007F" stroke-linecap="round" stroke-linejoin="round"/>
<path d="M157.396 461.553H147.248V475.836H157.396V461.553Z" fill="white" stroke="#27007F" stroke-linecap="round" stroke-linejoin="round"/>
<path d="M136.262 481.806H126.113V496.088H136.262V481.806Z" fill="white" stroke="#27007F" stroke-linecap="round" stroke-linejoin="round"/>
<path d="M157.396 481.806H147.248V496.088H157.396V481.806Z" fill="white" stroke="#27007F" stroke-linecap="round" stroke-linejoin="round"/>
<path d="M294.347 186.867V167.474H282.535C281.97 164.228 281.133 161.073 280.024 158.043L290.229 152.151L280.533 135.359L270.305 141.261C268.212 138.774 265.904 136.467 263.404 134.363L269.31 124.141L252.509 114.45L246.615 124.661C243.583 123.564 240.426 122.727 237.179 122.162V110.356H217.776V122.162C214.529 122.727 211.373 123.564 208.341 124.672L202.446 114.472L185.645 124.163L191.551 134.386C189.062 136.478 186.754 138.785 184.65 141.284L174.422 135.381L164.726 152.174L174.943 158.065C173.845 161.096 173.008 164.251 172.442 167.496H160.631V186.89H172.442C173.008 190.135 173.845 193.29 174.954 196.321L164.749 202.212L174.445 219.005L184.672 213.102C186.765 215.59 189.073 217.897 191.574 220L185.668 230.223L202.469 239.914L208.363 229.702C211.395 230.799 214.552 231.636 217.799 232.201V244.007H237.202V232.201C240.449 231.636 243.605 230.799 246.637 229.691L252.532 239.891L269.332 230.2L263.427 219.977C265.916 217.885 268.224 215.578 270.328 213.079L280.556 218.982L290.251 202.19L280.035 196.298C281.133 193.268 281.97 190.113 282.535 186.867H294.347ZM227.495 213.317C207.537 213.317 191.347 197.146 191.347 177.187C191.347 157.228 207.526 141.058 227.495 141.058C247.463 141.058 263.642 157.228 263.642 177.187C263.642 197.146 247.463 213.317 227.495 213.317Z" fill="white" stroke="#27007F" stroke-linecap="round" stroke-linejoin="round"/>
<path d="M206.157 364.88V345.487H194.346C193.78 342.241 192.943 339.086 191.834 336.056L202.039 330.164L192.343 313.371L182.116 319.274C180.023 316.787 177.715 314.48 175.215 312.376L181.12 302.154L164.32 292.463L158.425 302.674C155.393 301.577 152.237 300.74 148.99 300.175V288.369H129.587V300.175C126.34 300.74 123.183 301.577 120.151 302.685L114.257 292.485L97.4559 302.176L103.362 312.399C100.873 314.491 98.5646 316.798 96.4603 319.297L86.2327 313.394L76.5369 330.187L86.7532 336.078C85.6557 339.109 84.8185 342.264 84.2529 345.509H72.4414V364.903H84.2529C84.8185 368.148 85.6558 371.303 86.7645 374.334L76.5596 380.225L86.2554 397.018L96.4829 391.115C98.5759 393.603 100.884 395.91 103.384 398.013L97.4785 408.236L114.279 417.927L120.174 407.715C123.206 408.812 126.362 409.649 129.609 410.214V422.02H149.012V410.214C152.259 409.649 155.416 408.812 158.448 407.704L164.342 417.904L181.143 408.213L175.237 397.99C177.726 395.898 180.034 393.591 182.139 391.092L192.366 396.995L202.062 380.203L191.846 374.311C192.943 371.28 193.78 368.126 194.346 364.88H206.157ZM139.305 391.33C119.348 391.33 103.158 375.159 103.158 355.2C103.158 335.241 119.336 319.071 139.305 319.071C159.274 319.071 175.452 335.241 175.452 355.2C175.452 375.159 159.274 391.33 139.305 391.33Z" fill="white" stroke="#27007F" stroke-linecap="round" stroke-linejoin="round"/>
<path d="M698.437 362.109V349.026H690.461C690.076 346.832 689.511 344.706 688.764 342.659L695.654 338.679L689.104 327.348L682.202 331.329C680.788 329.644 679.227 328.083 677.541 326.67L681.523 319.772L670.187 313.224L666.205 320.111C664.157 319.365 662.03 318.799 659.835 318.426V310.454H646.745V318.426C644.55 318.811 642.423 319.376 640.376 320.122L636.393 313.236L625.057 319.783L629.039 326.692C627.354 328.106 625.792 329.666 624.378 331.351L617.477 327.371L610.926 338.702L617.816 342.682C617.069 344.729 616.504 346.855 616.13 349.049H608.154V362.143H616.13C616.515 364.337 617.081 366.463 617.828 368.51L610.937 372.49L617.488 383.821L624.389 379.841C625.804 381.526 627.365 383.086 629.051 384.5L625.068 391.398L636.405 397.945L640.387 391.058C642.435 391.805 644.562 392.37 646.756 392.743V400.715H659.846V392.743C662.041 392.359 664.168 391.793 666.216 391.047L670.198 397.934L681.535 391.386L677.552 384.477C679.238 383.063 680.799 381.503 682.213 379.818L689.115 383.798L695.665 372.468L688.775 368.487C689.522 366.44 690.088 364.315 690.461 362.121H698.437V362.109ZM653.307 379.965C639.833 379.965 628.904 369.041 628.904 355.573C628.904 342.105 639.833 331.182 653.307 331.182C666.782 331.182 677.711 342.105 677.711 355.573C677.711 369.041 666.782 379.965 653.307 379.965Z" fill="white" stroke="#27007F" stroke-linecap="round" stroke-linejoin="round"/>
<path d="M634.424 176.713V163.629H626.447C626.063 161.435 625.497 159.309 624.75 157.263L631.64 153.282L625.09 141.951L618.188 145.932C616.774 144.247 615.213 142.686 613.527 141.273L617.51 134.375L606.173 127.827L602.191 134.714C600.143 133.968 598.016 133.402 595.821 133.029V125.057H582.731V133.029C580.537 133.414 578.41 133.979 576.362 134.725L572.38 127.839L561.043 134.386L565.026 141.284C563.34 142.698 561.779 144.258 560.364 145.943L553.463 141.963L546.912 153.293L553.802 157.274C553.056 159.321 552.49 161.447 552.117 163.64H544.141V176.724H552.117C552.501 178.918 553.067 181.044 553.814 183.09L546.924 187.071L553.474 198.402L560.376 194.421C561.79 196.106 563.351 197.667 565.037 199.08L561.055 205.978L572.391 212.525L576.373 205.639C578.421 206.385 580.548 206.95 582.743 207.324V215.296H595.833V207.324C598.028 206.939 600.155 206.374 602.202 205.627L606.185 212.514L617.521 205.967L613.539 199.057C615.224 197.644 616.786 196.083 618.2 194.398L625.101 198.379L631.652 187.048L624.762 183.068C625.508 181.021 626.074 178.895 626.447 176.701H634.424V176.713ZM589.293 194.568C575.819 194.568 564.89 183.644 564.89 170.176C564.89 156.708 575.819 145.785 589.293 145.785C602.768 145.785 613.697 156.708 613.697 170.176C613.697 183.644 602.768 194.568 589.293 194.568Z" fill="white" stroke="#27007F" stroke-linecap="round" stroke-linejoin="round"/>
<path d="M160.247 433.294V342.625H42.1777V284.581L143.446 44.7236H229.837V286.028H267.274V342.637H229.837V433.305H160.247V433.294ZM100.737 286.017H160.247V120.997L100.737 286.028V286.017Z" fill="#27007F"/>
<path d="M229.836 433.86H160.246C159.929 433.86 159.681 433.611 159.681 433.294V343.191H42.177C41.8602 343.191 41.6113 342.942 41.6113 342.625V284.581C41.6113 284.502 41.6226 284.434 41.6566 284.366L142.925 44.4975C143.016 44.2827 143.219 44.147 143.445 44.147H229.836C230.153 44.147 230.402 44.3958 230.402 44.7124V285.463H267.273C267.59 285.463 267.839 285.712 267.839 286.028V342.637C267.839 342.953 267.59 343.202 267.273 343.202H230.402V433.306C230.402 433.622 230.153 433.871 229.836 433.871V433.86ZM160.812 432.729H229.271V342.625C229.271 342.309 229.52 342.06 229.836 342.06H266.708V286.582H229.836C229.52 286.582 229.271 286.334 229.271 286.017V45.2891H143.819L42.7427 284.694V342.06H160.246C160.563 342.06 160.812 342.309 160.812 342.625V432.729ZM160.246 286.582H100.736C100.555 286.582 100.374 286.492 100.273 286.345C100.171 286.198 100.137 286.006 100.205 285.825L159.715 120.805C159.805 120.545 160.077 120.398 160.348 120.443C160.62 120.488 160.812 120.726 160.812 120.997V286.028C160.812 286.345 160.563 286.594 160.246 286.594V286.582ZM101.54 285.451H159.681V124.231L101.54 285.451Z" fill="#27007F"/>
<path d="M406.464 440.011C383.102 440.011 363.744 435.217 348.391 425.616C333.028 416.027 321.51 402.83 313.84 386.038C306.158 369.245 302.322 349.818 302.322 327.755V153.621C302.322 130.914 305.999 111.012 313.364 93.8916C320.718 76.7824 332.077 63.4275 347.441 53.8381C362.805 44.2488 382.479 39.4429 406.476 39.4429C430.472 39.4429 449.592 44.2375 464.786 53.8381C479.98 63.4275 491.26 76.7937 498.625 93.8916C505.979 111.001 509.667 130.914 509.667 153.621V327.767C509.667 349.829 505.832 369.268 498.15 386.049C490.468 402.841 478.951 416.027 463.587 425.627C448.223 435.228 429.182 440.023 406.476 440.023L406.464 440.011ZM406.464 374.763C415.108 374.763 421.342 372.049 425.177 366.61C429.012 361.171 431.569 354.703 432.859 347.183C434.138 339.674 434.782 332.72 434.782 326.319V155.057C434.782 148.024 434.217 140.662 433.108 132.995C431.988 125.317 429.51 118.69 425.664 113.082C421.828 107.495 415.425 104.691 406.464 104.691C397.504 104.691 391.021 107.495 387.028 113.082C383.023 118.679 380.466 125.317 379.346 132.995C378.226 140.673 377.671 148.035 377.671 155.057V326.319C377.671 332.72 378.305 339.674 379.594 347.183C380.873 354.703 383.588 361.182 387.752 366.61C391.904 372.049 398.149 374.763 406.464 374.763Z" fill="#27007F"/>
<path d="M406.465 440.577C383.114 440.577 363.473 435.703 348.087 426.102C332.7 416.49 321.002 403.09 313.32 386.286C305.638 369.505 301.746 349.806 301.746 327.767V153.621C301.746 130.937 305.48 110.763 312.833 93.6766C320.21 76.5335 331.75 62.975 347.125 53.3631C362.5 43.7512 382.469 38.8887 406.465 38.8887C430.461 38.8887 449.864 43.7625 465.081 53.3631C480.298 62.975 491.759 76.5335 499.135 93.6766C506.489 110.786 510.223 130.96 510.223 153.621V327.767C510.223 349.806 506.331 369.505 498.649 386.286C490.956 403.101 479.257 416.502 463.882 426.102C448.507 435.714 429.183 440.577 406.465 440.577ZM406.465 40.0082C382.684 40.0082 362.93 44.8254 347.725 54.313C332.542 63.8005 321.149 77.1894 313.863 94.1177C306.566 111.069 302.866 131.084 302.866 153.621V327.767C302.866 349.648 306.724 369.177 314.338 385.823C321.93 402.434 333.492 415.665 348.675 425.152C363.869 434.64 383.306 439.457 406.454 439.457C429.602 439.457 448.077 434.64 463.271 425.152C478.465 415.665 490.017 402.434 497.608 385.823C505.222 369.188 509.08 349.648 509.08 327.767V153.621C509.08 131.107 505.38 111.091 498.083 94.1177C490.797 77.1894 479.484 63.8005 464.459 54.313C449.423 44.8254 429.907 40.0082 406.443 40.0082H406.465ZM406.465 375.34C397.991 375.34 391.543 372.524 387.3 366.961C383.103 361.476 380.319 354.85 379.03 347.284C377.751 339.787 377.106 332.742 377.106 326.319V155.057C377.106 147.99 377.672 140.538 378.792 132.905C379.912 125.17 382.537 118.396 386.576 112.753C390.671 107.02 397.369 104.125 406.477 104.125C415.584 104.125 422.203 107.032 426.14 112.765C430.009 118.396 432.543 125.181 433.675 132.916C434.795 140.594 435.36 148.046 435.36 155.069V326.33C435.36 332.697 434.715 339.753 433.437 347.296C432.147 354.872 429.534 361.487 425.664 366.961C421.739 372.536 415.279 375.351 406.488 375.351L406.465 375.34ZM406.465 105.256C397.742 105.256 391.362 108.004 387.492 113.409C383.566 118.905 381.01 125.52 379.912 133.074C378.803 140.651 378.238 148.046 378.238 155.057V326.319C378.238 332.674 378.883 339.663 380.15 347.092C381.406 354.476 384.109 360.933 388.205 366.271C392.221 371.54 398.376 374.209 406.477 374.209C414.577 374.209 421.026 371.54 424.737 366.293C428.504 360.956 431.061 354.499 432.317 347.092C433.584 339.618 434.229 332.629 434.229 326.319V155.057C434.229 148.103 433.663 140.696 432.554 133.074C431.446 125.52 428.979 118.894 425.212 113.409C421.501 108.004 415.199 105.256 406.477 105.256H406.465Z" fill="#27007F"/>
<path d="M668.038 433.294V342.626H549.969V284.581L651.237 44.7124H737.628V286.028H775.065V342.637H737.628V433.306H668.038V433.294ZM608.528 286.017H668.038V120.997L608.528 286.028V286.017Z" fill="#27007F"/>
<path d="M737.639 433.86H668.049C667.732 433.86 667.483 433.611 667.483 433.294V343.191H549.98C549.663 343.191 549.414 342.942 549.414 342.625V284.581C549.414 284.502 549.425 284.434 549.459 284.366L650.728 44.4975C650.818 44.2827 651.022 44.147 651.248 44.147H737.639C737.956 44.147 738.205 44.3958 738.205 44.7124V285.463H775.076C775.393 285.463 775.642 285.712 775.642 286.028V342.637C775.642 342.953 775.393 343.202 775.076 343.202H738.205V433.306C738.205 433.622 737.956 433.871 737.639 433.871V433.86ZM668.615 432.729H737.074V342.625C737.074 342.309 737.322 342.06 737.639 342.06H774.51V286.582H737.639C737.322 286.582 737.074 286.334 737.074 286.017V45.2891H651.622L550.545 284.705V342.071H668.049C668.366 342.071 668.615 342.32 668.615 342.637V432.74V432.729ZM668.049 286.582H608.539C608.358 286.582 608.177 286.492 608.075 286.345C607.973 286.198 607.94 286.006 608.007 285.825L667.517 120.805C667.608 120.545 667.868 120.386 668.151 120.443C668.422 120.488 668.615 120.726 668.615 120.997V286.028C668.615 286.345 668.366 286.594 668.049 286.594V286.582ZM609.342 285.451H667.483V124.231L609.342 285.451Z" fill="#27007F"/>
<path d="M321.127 520.231V461.644H342.328V465.907H326.693V487.901H339.432V491.95H326.693V516.104H342.464V520.231H321.115H321.127Z" fill="#27007F"/>
<path d="M349.998 520.231V461.644H363.246C366.912 461.644 369.797 462.232 371.89 463.419C373.983 464.595 375.499 466.314 376.415 468.553C377.332 470.792 377.796 473.461 377.796 476.548C377.796 478.719 377.558 480.766 377.072 482.7C376.585 484.633 375.771 486.273 374.617 487.619C373.463 488.964 371.822 489.858 369.695 490.299L378.667 520.243H373.315L364.706 491.452H355.519V520.243H350.021L349.998 520.231ZM355.496 487.392H362.952C365.407 487.392 367.319 486.985 368.666 486.16C370.012 485.346 370.985 484.136 371.562 482.541C372.139 480.947 372.433 478.945 372.433 476.537C372.433 472.918 371.811 470.227 370.555 468.44C369.299 466.653 366.821 465.76 363.099 465.76H355.496V487.381V487.392Z" fill="#27007F"/>
<path d="M387.051 520.231V461.644H400.288C403.953 461.644 406.838 462.232 408.931 463.419C411.024 464.607 412.54 466.314 413.457 468.553C414.373 470.792 414.837 473.461 414.837 476.548C414.837 478.719 414.6 480.766 414.113 482.7C413.627 484.633 412.812 486.273 411.658 487.619C410.504 488.964 408.864 489.858 406.737 490.299L415.708 520.243H410.357L401.747 491.452H392.561V520.243H387.062L387.051 520.231ZM392.549 487.392H400.005C402.46 487.392 404.372 486.985 405.718 486.16C407.065 485.346 408.038 484.136 408.615 482.541C409.192 480.947 409.486 478.945 409.486 476.537C409.486 472.918 408.864 470.227 407.608 468.44C406.352 466.653 403.874 465.76 400.152 465.76H392.549V487.381V487.392Z" fill="#27007F"/>
<path d="M437.928 520.955C434.07 520.955 431.038 520.197 428.843 518.682C426.648 517.167 425.098 515.041 424.216 512.316C423.322 509.59 422.881 506.469 422.881 502.952V478.651C422.881 475.078 423.356 471.991 424.295 469.356C425.234 466.732 426.807 464.697 429.002 463.25C431.196 461.802 434.172 461.078 437.939 461.078C441.707 461.078 444.75 461.802 446.945 463.25C449.14 464.697 450.69 466.732 451.618 469.356C452.534 471.991 452.998 475.078 452.998 478.651V503.032C452.998 506.548 452.557 509.658 451.663 512.361C450.769 515.063 449.242 517.167 447.069 518.693C444.897 520.209 441.865 520.966 437.951 520.966L437.928 520.955ZM437.928 516.545C440.53 516.545 442.51 516.025 443.856 514.984C445.203 513.944 446.142 512.497 446.64 510.642C447.149 508.787 447.398 506.628 447.398 504.174V477.634C447.398 475.18 447.149 473.031 446.64 471.199C446.13 469.367 445.203 467.954 443.856 466.97C442.51 465.986 440.53 465.489 437.928 465.489C435.326 465.489 433.403 465.986 432.034 466.97C430.653 467.954 429.714 469.367 429.217 471.199C428.707 473.031 428.458 475.18 428.458 477.634V504.174C428.458 506.628 428.707 508.787 429.217 510.642C429.726 512.497 430.665 513.944 432.034 514.984C433.414 516.025 435.371 516.545 437.928 516.545Z" fill="#27007F"/>
<path d="M462.094 520.231V461.644H475.342C479.008 461.644 481.893 462.232 483.986 463.419C486.09 464.595 487.595 466.314 488.511 468.553C489.428 470.792 489.88 473.461 489.88 476.548C489.88 478.719 489.642 480.766 489.156 482.7C488.669 484.633 487.855 486.273 486.701 487.619C485.547 488.964 483.906 489.858 481.779 490.299L490.751 520.243H485.4L476.79 491.452H467.603V520.243H462.105L462.094 520.231ZM467.592 487.392H475.048C477.503 487.392 479.415 486.985 480.761 486.16C482.108 485.346 483.081 484.136 483.658 482.541C484.235 480.947 484.529 478.945 484.529 476.537C484.529 472.918 483.906 470.227 482.651 468.44C481.395 466.653 478.917 465.76 475.195 465.76H467.592V487.381V487.392Z" fill="#27007F"/>
<path d="M302.357 239.224L306.554 299.734L280.307 287.487L273.654 314.072C273.654 314.072 329.996 345.554 335.597 344.503C341.197 343.451 327.202 221.04 327.202 221.04L302.357 239.224Z" fill="#651FFF" stroke="#27007F" stroke-linecap="round" stroke-linejoin="round"/>
<path d="M340.18 385.189C340.18 385.189 370.398 374.809 382.21 364.891C394.01 354.974 332.158 235.096 332.158 235.096C332.158 235.096 333.097 345.068 340.191 385.189H340.18Z" fill="#651FFF" stroke="#27007F" stroke-linecap="round" stroke-linejoin="round"/>
<path d="M466.699 346.459L463.203 346.979C463.225 347.194 463.248 347.375 463.237 347.499C462.976 351.989 438.686 363.941 421.534 370.41C417.79 373.316 412.766 374.775 406.453 374.775C406.397 374.775 406.34 374.775 406.284 374.775C393.047 376.052 367.625 370.229 361.878 366.293L355.678 429.664C356.673 430.151 357.692 430.626 358.721 431.089C372.15 437.037 388.057 440.023 406.453 440.023C427.666 440.023 445.678 435.839 460.476 427.459C460.589 427.403 460.691 427.335 460.804 427.278C461.743 426.747 462.66 426.193 463.565 425.627C464.662 424.949 465.726 424.236 466.789 423.513C467.117 423.298 467.423 423.06 467.751 422.846C468.486 422.325 469.222 421.805 469.946 421.262C470.285 421.002 470.624 420.754 470.964 420.493C471.688 419.939 472.389 419.374 473.091 418.808C473.374 418.571 473.668 418.345 473.939 418.107C474.901 417.305 475.851 416.479 476.768 415.642C472.819 387.609 466.665 346.47 466.665 346.47L466.699 346.459Z" fill="#737373" stroke="#27007F" stroke-linecap="round" stroke-linejoin="round"/>
<path d="M331.196 272.877C331.196 272.877 359.197 341.28 359.536 343.7C359.887 346.12 356.776 361.669 361.267 365.807C365.759 369.957 395.83 376.867 408.626 374.447C421.411 372.027 462.898 353.368 463.237 347.499C463.588 341.631 422.101 226.921 416.919 213.102C411.737 199.284 390.649 194.444 376.473 195.823C362.297 197.203 328.084 206.193 321.862 214.821C315.639 223.449 331.196 272.866 331.196 272.866V272.877Z" fill="white" stroke="#27007F" stroke-linecap="round" stroke-linejoin="round"/>
<path d="M333.617 209.303C333.617 209.303 330.155 240.739 332.236 247.309C334.307 253.879 343.742 271.927 343.742 271.927C343.742 271.927 359.536 252.138 362.648 250.069C365.759 247.999 394.45 266.307 394.45 266.307C394.45 266.307 395.491 246.608 391.339 230.381C387.187 214.143 379.935 196.524 377.514 193.415C375.093 190.305 375.093 201.704 366.11 209.303C357.127 216.902 333.617 209.303 333.617 209.303Z" fill="white" stroke="#27007F" stroke-linecap="round" stroke-linejoin="round"/>
<path d="M331.06 214.776C331.06 214.776 335.167 225.213 344.116 237.901C353.065 250.589 365.386 259.907 365.386 259.907C365.386 259.907 375.093 234.916 377.695 220C380.308 205.085 375.828 190.158 375.828 190.158C375.828 190.158 373.961 212.537 366.121 217.015C358.281 221.493 331.049 214.776 331.049 214.776H331.06Z" fill="white" stroke="#27007F" stroke-linecap="round" stroke-linejoin="round"/>
<path d="M351.561 218.27C341.684 217.388 331.072 214.776 331.072 214.776C331.072 214.776 335.179 225.213 344.128 237.901C344.988 239.122 345.893 240.31 346.81 241.463L362.241 223.608L351.561 218.27Z" fill="#27007F" stroke="#27007F" stroke-linecap="round" stroke-linejoin="round"/>
<path d="M375.839 190.158C375.839 190.158 387.187 235.56 391.339 269.756C395.491 303.963 405.515 405.194 405.515 405.194C405.515 405.194 436.628 396.215 452.874 384.466C469.12 372.717 474.302 364.767 474.302 364.767C474.302 364.767 447.681 248.338 447.681 246.608C447.681 244.878 450.442 227.61 450.442 227.61C450.442 227.61 497.45 205.503 515.427 192.024C533.405 178.544 528.913 171.296 520.269 167.836C511.626 164.375 484.665 168.186 469.799 172.325C454.933 176.475 447.33 179.234 447.33 179.234C447.33 179.234 430.733 177.855 415.528 181.304C400.322 184.753 375.828 190.147 375.828 190.147L375.839 190.158Z" fill="#651FFF" stroke="#27007F" stroke-linecap="round" stroke-linejoin="round"/>
<path d="M399.711 306.315C399.167 308.034 398.568 309.889 397.9 311.913L399.711 306.315Z" fill="white"/>
<path d="M399.711 306.315C399.167 308.034 398.568 309.889 397.9 311.913" stroke="#27007F" stroke-linecap="round" stroke-linejoin="round"/>
<path d="M405.04 229.42L410.346 232.801C410.346 232.801 408.593 260.325 406.194 277.717C404.746 288.188 403.49 293.933 401.148 301.69" stroke="#27007F" stroke-linecap="round" stroke-linejoin="round"/>
<path d="M395.65 196.637C399.135 203.027 404.124 212.446 404.124 213.792C404.124 215.861 398.943 225.541 398.943 225.541L402.178 227.599" stroke="#27007F" stroke-linecap="round" stroke-linejoin="round"/>
<path d="M392.369 190.678C392.369 190.678 392.924 191.662 393.783 193.222L392.369 190.678Z" fill="white"/>
<path d="M392.369 190.678C392.369 190.678 392.924 191.662 393.783 193.222" stroke="#27007F" stroke-linecap="round" stroke-linejoin="round"/>
<path d="M456.019 342.875C452.172 345.532 446.346 348.936 438.347 352C422.1 358.22 419.34 359.26 419.34 359.26L421.761 367.549C421.761 367.549 450.102 362.37 463.237 347.511" stroke="#27007F" stroke-linecap="round" stroke-linejoin="round"/>
<path d="M461.856 338.17C461.856 338.17 461.098 338.962 459.537 340.24L461.856 338.17Z" fill="white"/>
<path d="M461.856 338.17C461.856 338.17 461.098 338.962 459.537 340.24" stroke="#27007F" stroke-linecap="round" stroke-linejoin="round"/>
<path d="M456.653 209.269L450.453 227.61L464.969 205.842" stroke="#27007F" stroke-linecap="round" stroke-linejoin="round"/>
<path d="M459.435 201.014L458.01 205.243" stroke="#27007F" stroke-linecap="round" stroke-linejoin="round"/>
<path d="M333.617 209.302C333.617 209.302 337.079 272.187 340.88 302.934C344.682 333.681 350.904 409.694 350.904 409.694C350.904 409.694 338.81 408.654 330.857 398.985C322.903 389.317 319.102 382.057 319.102 382.057V313.654C319.102 310.895 313.569 279.447 308.388 263.898C303.206 248.349 295.603 230.381 300.095 222.782C304.586 215.183 318.762 203.784 323.944 202.393C329.126 201.002 333.278 202.393 333.617 209.302Z" fill="#651FFF" stroke="#27007F" stroke-linecap="round" stroke-linejoin="round"/>
<path d="M331.672 288.279C333.629 294.385 335.519 299.802 337.068 303.284L331.672 288.279Z" fill="white"/>
<path d="M331.672 288.279C333.629 294.385 335.519 299.802 337.068 303.284" stroke="#27007F" stroke-linecap="round" stroke-linejoin="round"/>
<path d="M319.86 221.278C319.271 225.767 319 229.239 319.441 229.691C320.821 231.071 326.354 235.911 326.354 235.911C326.354 235.911 319.441 244.55 320.482 249.039C321.161 251.991 325.72 269.111 330.347 284.038" stroke="#27007F" stroke-linecap="round" stroke-linejoin="round"/>
<path d="M323.594 198.243C323.594 198.243 321.772 208.149 320.482 216.845L323.594 198.243Z" fill="white"/>
<path d="M323.594 198.243C323.594 198.243 321.772 208.149 320.482 216.845" stroke="#27007F" stroke-linecap="round" stroke-linejoin="round"/>
<path d="M327.633 357.971L321.523 355.098" stroke="#27007F" stroke-linecap="round" stroke-linejoin="round"/>
<path d="M321.523 345.769L338.46 352.679V363.048L330.71 359.407" stroke="#27007F" stroke-linecap="round" stroke-linejoin="round"/>
<path d="M307.788 167.734L313.694 182.197C313.694 182.197 306.012 174.225 304.236 181.315C302.459 188.405 307.777 196.671 311.329 196.671C314.882 196.671 319.011 196.965 319.011 196.965C319.011 196.965 331.422 218.813 339.104 222.952C346.786 227.09 357.127 230.63 363.621 227.09C370.115 223.551 373.667 213.803 375.738 206.419C377.808 199.035 376.326 176.893 376.326 176.893L365.691 133.199C365.691 133.199 373.079 130.541 373.079 125.521C373.079 120.5 355.95 119.03 355.95 119.03C355.95 119.03 362.75 111.057 354.174 109.881C345.61 108.705 317.835 125.238 316.952 125.826C316.07 126.414 321.681 115.49 314.588 119.335C307.494 123.168 299.224 142.076 300.117 146.497C301 150.93 307.799 167.757 307.799 167.757L307.788 167.734Z" fill="white" stroke="#27007F" stroke-linecap="round" stroke-linejoin="round"/>
<path d="M355.939 119.007C355.939 119.007 362.738 111.035 354.162 109.859C345.598 108.683 317.823 125.215 316.94 125.803C316.058 126.391 321.669 115.468 314.576 119.312C307.482 123.146 299.212 142.053 300.106 146.474C300.988 150.907 307.788 167.734 307.788 167.734L313.693 182.197C313.693 182.197 320.493 188.394 318.128 183.678C315.764 178.963 311.035 168.322 312.223 166.852C313.399 165.37 319.316 163.018 319.61 159.762C319.905 156.516 313.999 147.062 315.775 144.699C317.551 142.336 342.656 146.768 347.091 144.111C351.526 141.454 345.915 134.963 345.915 134.963L365.702 133.187C365.702 133.187 373.09 130.53 373.09 125.509C373.09 120.488 355.961 119.018 355.961 119.018L355.939 119.007Z" fill="#737373" stroke="#27007F" stroke-linecap="round" stroke-linejoin="round"/>
<path d="M359.786 191.945C359.786 191.945 357.127 196.965 352.986 197.259L359.786 191.945Z" fill="white"/>
<path d="M359.786 191.945C359.786 191.945 357.127 196.965 352.986 197.259" stroke="#27007F" stroke-linecap="round" stroke-linejoin="round"/>
<path d="M341.468 178.363C342.294 180.139 341.943 182.05 340.687 182.638C339.432 183.226 337.746 182.253 336.92 180.478C336.094 178.703 336.445 176.792 337.701 176.204C338.956 175.616 340.642 176.588 341.468 178.363Z" fill="#27007F"/>
<path d="M365.011 173.704C365.317 175.638 364.457 177.38 363.088 177.594C361.719 177.809 360.361 176.418 360.056 174.485C359.75 172.551 360.61 170.809 361.979 170.595C363.348 170.38 364.706 171.771 365.011 173.704Z" fill="#27007F"/>
<path d="M352.986 208.477C352.986 208.477 358.01 208.477 361.551 205.82L352.986 208.477Z" fill="white"/>
<path d="M352.986 208.477C352.986 208.477 358.01 208.477 361.551 205.82" stroke="#27007F" stroke-linecap="round" stroke-linejoin="round"/>
<path d="M326.693 174.519C326.693 174.519 330.834 168.616 342.057 172.155" stroke="#27007F" stroke-width="2" stroke-linecap="round" stroke-linejoin="round"/>
<path d="M356.539 168.91C356.539 168.91 358.609 162.114 366.586 161.526" stroke="#27007F" stroke-width="2" stroke-linecap="round" stroke-linejoin="round"/>
<path d="M373.078 163.007C373.078 163.007 375.149 158.28 377.513 161.231C379.878 164.183 380.76 170.086 379.289 173.931C377.807 177.764 376.925 181.021 376.925 181.021L376.336 176.882L373.089 163.007H373.078Z" fill="white" stroke="#27007F" stroke-linecap="round" stroke-linejoin="round"/>
<path d="M427.43 139.972C427.43 139.972 394.938 134.069 392.867 134.069C390.797 134.069 366.574 138.502 363.033 139.972C359.492 141.454 332.611 149.12 333.199 150.896C333.787 152.671 337.034 153.259 337.034 153.259C337.034 153.259 337.623 155.917 347.081 157.093C356.539 158.269 378.691 155.317 378.985 157.387C379.279 159.456 377.503 161.22 377.503 161.22L380.162 165.947C380.162 165.947 389.914 164.466 393.161 162.114C396.408 159.75 405.572 152.366 405.572 152.366L425.36 153.847L427.43 139.972Z" fill="white" stroke="#27007F" stroke-linecap="round" stroke-linejoin="round"/>
<path d="M355.352 144.111C355.352 144.111 342.058 149.72 339.988 150.907C337.917 152.083 343.823 154.447 347.375 153.859C350.917 153.271 364.504 147.956 366.575 147.368C368.645 146.78 378.092 149.143 384.892 150.025C391.691 150.907 396.409 148.849 397.597 148.25" fill="white"/>
<path d="M355.352 144.111C355.352 144.111 342.058 149.72 339.988 150.907C337.917 152.083 343.823 154.447 347.375 153.859C350.917 153.271 364.504 147.956 366.575 147.368C368.645 146.78 378.092 149.143 384.892 150.025C391.691 150.907 396.409 148.849 397.597 148.25" stroke="#27007F" stroke-linecap="round" stroke-linejoin="round"/>
<path d="M507.484 187.184C507.484 187.184 497.11 189.943 484.676 187.184C472.231 184.425 439.399 168.186 439.399 168.186L416.93 161.616L422.111 135.359C422.111 135.359 478.804 142.268 494.7 148.137C510.595 154.006 533.754 167.485 533.064 172.325C532.374 177.165 519.578 187.523 519.578 187.523" fill="#651FFF"/>
<path d="M507.484 187.184C507.484 187.184 497.11 189.943 484.676 187.184C472.231 184.425 439.399 168.186 439.399 168.186L416.93 161.616L422.111 135.359C422.111 135.359 478.804 142.268 494.7 148.137C510.595 154.006 533.754 167.485 533.064 172.325C532.374 177.165 519.578 187.523 519.578 187.523" stroke="#27007F" stroke-linecap="round" stroke-linejoin="round"/>
<path d="M312.777 300.073C312.777 300.073 333.572 323.899 351.131 315.882C368.678 307.864 377.344 256.548 377.344 256.548" stroke="#27007F" stroke-linecap="round" stroke-linejoin="round"/>
<path d="M285.477 282.104C285.477 282.104 301.938 302.674 323.83 300.729C345.71 298.784 353.076 273.442 352.861 260.879" stroke="#27007F" stroke-linecap="round" stroke-linejoin="round"/>
<path d="M294.989 269.222L288.039 266.889L277.093 299.454L284.043 301.788L294.989 269.222Z" fill="#7D7D7D" stroke="#27007F" stroke-linecap="round" stroke-linejoin="round"/>
<path d="M298.118 266.264L287.34 262.644L285.729 267.436L296.508 271.055L298.118 266.264Z" fill="#27007F" stroke="#27007F" stroke-linecap="round" stroke-linejoin="round"/>
<path d="M310.325 274.366L303.375 272.032L292.429 304.597L299.379 306.931L310.325 274.366Z" fill="#7D7D7D" stroke="#27007F" stroke-linecap="round" stroke-linejoin="round"/>
<path d="M313.45 271.429L302.672 267.81L301.061 272.601L311.84 276.22L313.45 271.429Z" fill="#27007F" stroke="#27007F" stroke-linecap="round" stroke-linejoin="round"/>
<path d="M307.756 282.031L285.234 274.469L276.865 299.37L299.386 306.932L307.756 282.031Z" fill="#27007F" stroke="#27007F" stroke-linecap="round" stroke-linejoin="round"/>
<path d="M278.779 316.006L257.781 308.95L268.914 290.574L281.008 294.634L278.779 316.006Z" fill="#7D7D7D" stroke="#27007F" stroke-linecap="round" stroke-linejoin="round"/>
<path d="M278.799 316.012L257.789 308.957L250.298 331.243L271.308 338.298L278.799 316.012Z" fill="#636363" stroke="#27007F" stroke-linecap="round" stroke-linejoin="round"/>
<path d="M291.383 273.608L273.344 267.551L265.853 289.836L283.892 295.893L291.383 273.608Z" fill="#636363" stroke="#27007F" stroke-linecap="round" stroke-linejoin="round"/>
<path d="M309.451 326.308L288.441 319.252L299.574 300.876L311.668 304.936L309.451 326.308Z" fill="#7D7D7D" stroke="#27007F" stroke-linecap="round" stroke-linejoin="round"/>
<path d="M309.457 326.309L288.447 319.255L280.957 341.54L301.966 348.595L309.457 326.309Z" fill="#636363" stroke="#27007F" stroke-linecap="round" stroke-linejoin="round"/>
<path d="M322.045 283.894L304.006 277.837L296.515 300.123L314.554 306.18L322.045 283.894Z" fill="#636363" stroke="#27007F" stroke-linecap="round" stroke-linejoin="round"/>
<path d="M266.211 266.069C266.211 266.069 263.767 270.095 264.48 271.249C265.204 272.402 272.252 276.281 273.259 276.575C274.266 276.857 277.004 275.421 276.857 273.555C276.71 271.69 271.245 267.653 269.514 266.646C267.783 265.64 266.924 265.493 266.2 266.069H266.211Z" fill="white" stroke="#27007F" stroke-linecap="round" stroke-linejoin="round"/>
<path d="M262.329 274.03C262.329 274.03 261.152 278.599 262.171 279.492C263.189 280.385 271.075 282.07 272.115 282.059C273.156 282.048 275.362 279.877 274.695 278.124C274.016 276.371 267.613 274.098 265.667 273.623C263.721 273.16 262.85 273.273 262.329 274.03Z" fill="white" stroke="#27007F" stroke-linecap="round" stroke-linejoin="round"/>
<path d="M260.169 281.946C260.169 281.946 258.992 286.515 260.011 287.408C261.029 288.301 268.914 289.986 269.955 289.975C271.007 289.964 273.202 287.792 272.535 286.04C271.856 284.287 265.452 282.014 263.506 281.539C261.561 281.075 260.689 281.188 260.169 281.946Z" fill="white" stroke="#27007F" stroke-linecap="round" stroke-linejoin="round"/>
<path d="M261.177 289.568C261.177 289.568 260 294.136 261.018 295.03C262.037 295.923 269.922 297.608 270.963 297.597C272.015 297.585 274.21 295.414 273.543 293.661C272.864 291.909 266.46 289.636 264.514 289.161C262.568 288.697 261.697 288.81 261.177 289.568Z" fill="white" stroke="#27007F" stroke-linecap="round" stroke-linejoin="round"/>
</g>
<defs>
<clipPath id="clip0_19_1505">
<rect width="823" height="528" fill="white"/>
</clipPath>
</defs>
</svg>
