<svg width="1440" height="274" viewBox="0 0 1440 274" fill="none" xmlns="http://www.w3.org/2000/svg">
<path d="M1440 169.292V170.65C1432.9 170.82 1425.98 170.65 1418.88 170.141C1392.96 168.273 1367.42 162.33 1344.19 152.312C1320.96 142.294 1300.22 128.37 1283.14 111.22C1266.43 94.5798 1253.18 75.2226 1243.97 54.3373C1236.48 37.0177 1231.87 18.6793 1230.53 0.171143H1231.87C1233.22 21.3961 1239.17 42.2815 1248.77 61.8085C1258.75 82.0146 1272.96 100.693 1290.43 116.654C1308.29 132.785 1329.6 145.69 1353.02 154.689C1377.02 163.858 1403.14 168.782 1429.44 169.461C1433.09 169.292 1436.54 169.292 1440 169.292Z" fill="#355CB8"/>
<path d="M343.68 0C332.928 24.2814 316.224 46.5251 294.912 64.3541C264 90.1637 223.872 107.144 181.824 112.068C140.352 116.822 91.584 110.54 57.792 137.368C23.232 164.876 19.776 209.023 9.408 246.549C6.912 255.718 3.84 264.718 0 273.378V269.982C6.144 255.888 9.6 240.946 13.056 226.173C21.312 190.855 30.912 149.424 68.352 128.878C85.824 119.199 106.56 115.973 126.912 114.445C148.416 112.747 170.304 112.917 191.616 109.521C233.856 102.729 273.6 83.5415 302.784 55.6943C319.68 39.5633 333.12 20.5458 342.336 0H343.68V0Z" fill="#355CB8"/>
</svg>
