<svg width="301" height="231" viewBox="0 0 301 231" fill="none" xmlns="http://www.w3.org/2000/svg">
<path d="M299.328 230.124C298.56 226.898 297.6 223.841 296.64 220.785C288.96 195.145 277.056 170.354 261.888 147.431C246.72 124.508 228.096 103.453 206.784 84.945C184.512 65.7577 159.168 49.2871 131.712 36.3823C103.296 22.9681 72.96 13.2895 41.472 7.34654C27.84 4.79955 13.824 3.10154 0 2.08274V0.724365C18.048 2.08276 35.904 4.62976 53.376 8.36535C84.864 15.1573 115.2 26.0245 143.04 40.4575C169.728 54.2113 194.112 71.1913 215.424 91.0578C236.352 110.415 254.208 132.149 268.608 155.582C283.008 179.014 293.76 203.975 300.672 229.954C301.056 230.633 299.52 230.973 299.328 230.124Z" fill="#355CB8"/>
</svg>
