<svg width="299" height="356" viewBox="0 0 299 356" fill="none" xmlns="http://www.w3.org/2000/svg">
<path d="M299 0.0749512V1.43335C272.888 13.9985 255.224 38.1101 246.008 62.731C233.144 97.3702 233.528 134.217 227.768 169.875C224.888 187.364 220.472 204.684 212.408 220.984C205.688 234.568 196.472 247.303 185.336 258.68C174.2 269.887 161.336 279.735 147.128 287.716C131.192 296.545 113.72 302.318 95.6718 307.073C76.8558 311.997 57.4638 316.072 39.9918 324.392C24.8238 331.694 9.84787 341.712 1.39987 355.296C1.01587 355.975 -0.328084 355.296 0.247916 354.617C2.16792 351.56 4.27985 348.674 6.77585 346.127C17.7198 334.241 33.0799 325.241 48.8239 319.129C67.2559 311.997 87.0318 308.261 106.232 302.828C123.896 297.734 140.6 290.772 155.768 281.094C169.976 271.924 182.648 260.887 193.016 248.492C203.576 235.757 211.832 221.494 217.4 206.382C223.928 188.383 227 169.705 229.112 151.027C233.336 115.709 234.872 78.862 252.344 46.0907C261.944 27.0731 278.264 9.92334 299 0.0749512Z" fill="#355CB8"/>
</svg>
