<svg width="1440" height="175" viewBox="0 0 1440 175" fill="none" xmlns="http://www.w3.org/2000/svg">
<path d="M1440 0.446045H0V1.4648H81.792L64.128 36.4436H0V37.802H63.36L45.696 72.7807H0V74.1391H44.928L27.264 109.118H0V110.476H26.496L8.832 145.455H0V146.813H8.064L0 162.944V166.34L9.792 146.813H129.216L117.312 175H119.04L130.944 146.813H250.368L240.96 175H242.688L252.096 146.813H371.52L364.416 175H365.952L373.056 146.813H492.48L487.68 175H489.216L494.016 146.813H613.44L611.136 175H612.672L614.976 146.813H734.4V175H735.936V146.813H855.36L858.24 175H859.776L857.472 146.813H976.896L981.696 175H983.232L978.432 146.813H1097.86L1104.96 175H1106.5L1099.39 146.813H1218.82L1228.22 175H1229.95L1220.54 146.813H1340.16L1352.06 175H1353.79L1341.89 146.813H1440V145.455H1341.31L1326.53 110.476H1440V109.118H1325.95L1311.17 74.1391H1424.45L1440 104.873V101.477L1426.18 74.1391H1440V72.7807H1425.41L1407.74 37.802H1440V36.4436H1406.98L1389.31 1.4648H1440V0.446045ZM625.92 1.4648L623.04 36.4436H512.832L518.784 1.4648H625.92ZM390.144 72.7807H276.864L288.576 37.802H398.784L390.144 72.7807ZM400.704 37.802H510.912L504.96 72.7807H391.68L400.704 37.802ZM275.328 72.7807H162.24L177.024 37.802H287.232L275.328 72.7807ZM274.944 74.1391L263.232 109.118H146.88L161.664 74.1391H274.944ZM276.48 74.1391H389.76L380.928 109.118H264.576L276.48 74.1391ZM391.488 74.1391H504.768L498.816 109.118H382.464L391.488 74.1391ZM506.496 74.1391H619.776L616.896 109.118H500.544L506.496 74.1391ZM506.688 72.7807L512.64 37.802H623.04L620.16 72.7807H506.688ZM517.056 1.4648L511.104 36.4436H400.896L409.728 1.4648H517.056ZM408.192 1.4648L399.36 36.4436H289.152L300.864 1.4648H408.192ZM299.328 1.4648L287.616 36.4436H177.408L192.192 1.4648H299.328ZM83.52 1.4648H190.656L175.872 36.4436H65.664L83.52 1.4648ZM65.088 37.802H175.296L160.512 72.7807H47.424L65.088 37.802ZM46.656 74.1391H159.936L145.152 109.118H28.992L46.656 74.1391ZM129.792 145.455H10.56L28.224 110.476H144.576L129.792 145.455ZM250.752 145.455H131.52L146.304 110.476H262.656L250.752 145.455ZM371.712 145.455H252.288L264 110.476H380.352L371.712 145.455ZM492.864 145.455H373.44L382.272 110.476H498.624L492.864 145.455ZM613.824 145.455H494.4L500.352 110.476H616.704L613.824 145.455ZM734.784 145.455H615.36L618.24 110.476H734.592V145.455H734.784ZM734.784 109.118H618.432L621.312 74.1391H734.784V109.118ZM734.784 72.7807H621.504L624.384 37.802H734.784V72.7807ZM734.784 36.4436H624.576L627.456 1.4648H734.784V36.4436ZM1278.91 1.4648L1293.7 36.4436H1183.49L1171.78 1.4648H1278.91ZM1079.23 72.7807H965.952L960 37.802H1070.21L1079.23 72.7807ZM1072.13 37.802H1182.34L1194.05 72.7807H1080.77L1072.13 37.802ZM964.416 72.7807H851.136L848.256 37.802H958.656L964.416 72.7807ZM964.608 74.1391L970.56 109.118H854.208L851.328 74.1391H964.608ZM966.336 74.1391H1079.62L1088.45 109.118H972.096L966.336 74.1391ZM1081.15 74.1391H1194.43L1206.14 109.118H1089.79L1081.15 74.1391ZM1183.87 37.802H1294.08L1308.86 72.7807H1195.78L1183.87 37.802ZM1170.05 1.4648L1181.76 36.4436H1071.55L1062.72 1.4648H1170.05ZM1061.18 1.4648L1070.02 36.4436H959.808L953.856 1.4648H1061.18ZM952.32 1.4648L958.272 36.4436H848.064L845.184 1.4648H952.32ZM736.32 1.4648H843.648L846.528 36.4436H736.32V1.4648ZM736.32 37.802H846.72L849.6 72.7807H736.32V37.802ZM736.32 74.1391H849.6L852.48 109.118H736.128V74.1391H736.32ZM736.32 145.455V110.476H852.672L855.552 145.455H736.32ZM857.28 145.455L854.4 110.476H970.752L976.704 145.455H857.28ZM978.24 145.455L972.288 110.476H1088.64L1097.47 145.455H978.24ZM1099.2 145.455L1090.37 110.476H1206.72L1218.43 145.455H1099.2ZM1339.58 145.455H1220.35L1208.64 110.476H1324.8L1339.58 145.455ZM1324.22 109.118H1208.06L1196.35 74.1391H1309.63L1324.22 109.118ZM1423.68 72.7807H1310.59L1295.81 37.802H1406.02L1423.68 72.7807ZM1405.25 36.4436H1295.23L1280.45 1.4648H1387.58L1405.25 36.4436Z" fill="#355CB8"/>
</svg>
